# xmcd
#
# Track frame offsets:
#	150
#	21793
#	47681
#	60012
#	75810
#	86221
#	91616
#	112587
#	129169
#	145338
#	164786
#	172585
#	196635
#	216316
#
# Disc length: 3116 seconds
#
# Revision: 3
# Processed by: cddbd v1.4PL0 Copyright (c) Steve Scherf et al.
# Submitted via: EasyCDDAExtractor 5.0.6
#
DISCID=9b0c2a0e
DTITLE=G. Love and Special Sauce - Back in the Day
DYEAR=1993
DGENRE=Rap
TTITLE0=Crazy Logic
TTITLE1=This Ain't Livin'
TTITLE2=House Stirs the Soup
TTITLE3=Fresh Lila
TTITLE4=It's So Hot
TTITLE5=Roches
TTITLE6=Never Home
TTITLE7=Can't Be Satisfied
TTITLE8=Something Gone on Wrong
TTITLE9=Bring It On
TTITLE10=Cool D.J. Look
TTITLE11=Step in Side My Ride '94
TTITLE12=The Recipe
TTITLE13=Seashells
EXTD=
EXTT0=
EXTT1=
EXTT2=
EXTT3=
EXTT4=
EXTT5=
EXTT6=
EXTT7=
EXTT8=
EXTT9=
EXTT10=
EXTT11=
EXTT12=
EXTT13=
PLAYORDER=
